<?xml version="1.0" encoding="UTF-8"?>
<svg id="Layer_1" data-name="Layer 1" xmlns="http://www.w3.org/2000/svg" xmlns:xlink="http://www.w3.org/1999/xlink" viewBox="0 0 1003 175">
  <defs>
    <clipPath id="clippath">
      <rect width="1003" height="175" style="fill: none; stroke-width: 0px;"/>
    </clipPath>
  </defs>
  <g style="clip-path: url(#clippath);">
    <g>
      <g>
        <path d="m149.35,118.39v3.85c0,2.12-.27,4.16-.81,6.08-.53,1.92-2.39,2.88-5.58,2.88H34.06c-.64,0-2.56,1.87-5.77,5.6-3.2,3.74-6.66,8.01-10.4,12.81-3.74,4.81-7.27,9.56-10.58,14.25-3.31,4.7-5.49,8.12-6.54,10.25h163.31c5.76,0,11.36-1.76,16.81-5.27,5.44-3.53,10.25-7.96,14.42-13.29,4.17-5.34,7.53-11.17,10.08-17.46,2.57-6.3,3.85-12.23,3.85-17.77v-1.94c0-4.9-.75-10.23-2.25-16-1.5-5.76-3.8-11.15-6.9-16.17-3.08-5.03-7.08-9.19-12-12.5-4.91-3.3-10.77-4.96-17.6-4.96h-60.85c-.21,0-1.12-.38-2.73-1.12-1.6-.75-2.82-1.55-3.67-2.4-.43,0-.65-.21-.65-.65h-63.73c.43,5.33,1.71,10.72,3.83,16.17,2.14,5.45,5.02,10.35,8.65,14.73,3.64,4.38,7.91,7.95,12.81,10.73,4.92,2.78,10.47,4.17,16.67,4.17h64.04c1.71,0,2.88.91,3.52,2.73.64,1.81.96,3.56.96,5.27ZM252.16,4.39H88.83c-4.92,0-9.78,1.33-14.58,4-4.79,2.67-9.33,6.08-13.6,10.25-4.27,4.17-8.06,8.81-11.38,13.94-3.31,5.12-5.92,10.14-7.83,15.04h173.25c7.47-7.04,14.35-14.19,20.65-21.46,6.3-7.26,11.92-14.52,16.83-21.77Z" style="fill: #22acd3; stroke-width: 0px;"/>
        <path d="m263.73,170.36l10.48-59.42,33.21,59.42h42.6l-40.85-67.29,62.92-56.59h-47.19l-46.97,43.48,15.29-86.3h-36.7l-29.49,166.69h36.7Z" style="fill: #22acd3; stroke-width: 0px;"/>
        <path d="m405.07,37.97c12.45,0,24.25-8.3,24.25-22.29,0-9.61-7.43-15.51-17.69-15.51-12.45,0-24.25,8.96-24.25,22.5,0,9.61,7.43,15.3,17.69,15.3Zm-5.02,132.39l21.84-123.88h-36.7l-21.84,123.88h36.7Z" style="fill: #22acd3; stroke-width: 0px;"/>
        <path d="m476.5,170.36l5.24-29.71h-9.18c-2.62,0-6.12-.66-6.12-5.68,0-.44,0-1.31.22-1.97L489.61,3.66h-36.7l-25.12,142c-.44,1.97-.44,3.71-.44,5.46,0,12.45,8.52,19.22,24.47,19.22h24.69Z" style="fill: #22acd3; stroke-width: 0px;"/>
        <path d="m545.97,170.36l5.24-29.71h-9.18c-2.62,0-6.12-.66-6.12-5.68,0-.44,0-1.31.22-1.97L559.08,3.66h-36.7l-25.12,142c-.44,1.97-.44,3.71-.44,5.46,0,12.45,8.52,19.22,24.47,19.22h24.69Z" style="fill: #22acd3; stroke-width: 0px;"/>
      </g>
      <g>
        <path d="m603.19,170.36l11.58-65.76h63.35l-11.58,65.76h39.11L735.15,3.66h-39.1l-11.8,65.98h-63.36l11.8-65.98h-39.11l-29.5,166.69h39.11Z" style="stroke-width: 0px;"/>
        <path d="m774.67,172.98c14.85,0,25.12-4.8,34.52-15.95l-2.41,13.33h36.7l21.85-123.88h-36.7l-12.23,69.69c-1.97,10.27-4.37,16.6-8.3,20.97-3.93,4.15-9.4,6.34-17.48,6.34-6.33,0-10.48-1.53-12.89-4.59-1.53-2.19-2.4-5.46-2.4-10.05,0-3.28.44-7.43,1.31-12.67l12.23-69.69h-36.7l-12.23,69.26c-1.97,11.8-3.06,19.01-3.06,24.91,0,4.15.44,7.43,1.53,10.93,3.93,14.2,15.95,21.41,36.27,21.41Z" style="stroke-width: 0px;"/>
        <path d="m935.46,172.98c38.89,0,66.85-39.54,66.85-80.18,0-29.28-17.04-48.94-44.13-48.94-13.11,0-24.03,3.49-34.52,15.95l10.05-56.15h-36.7l-29.49,166.69h36.7l2.4-13.33c6.12,12.45,15.73,15.95,28.84,15.95Zm-4.81-31.24c-13.76,0-22.06-9.61-22.06-24.91,0-20.54,13.1-41.73,33.86-41.73,13.99,0,22.07,9.83,22.07,24.69,0,20.54-13.11,41.95-33.86,41.95Z" style="stroke-width: 0px;"/>
      </g>
    </g>
  </g>
</svg>